# xmcd
#
# Track frame offsets:
#	150
#	13263
#	25606
#	39279
#	48533
#	60182
#	73387
#	82411
#	93932
#	103806
#	116817
#	131407
#	146661
#	159285
#	172760
#	187650
#	201235
#	212688
#	223227
#	235624
#
# Disc length: 3231 seconds
# Revision: 0
# Processed by: cddbd v1.5.2PL0 Copyright (c) Steve Scherf et al.
# Submitted via: dBpowerAMP V12.0
#
DISCID=160c9d14
DTITLE=Joseph Decosimo - Sequatchie Valley
DYEAR=2012
DGENRE=Country
TTITLE0=New Nashville
TTITLE1=Jenny in the Cotton Patch
TTITLE2=I'm Troubled
TTITLE3=Hy Patillion
TTITLE4=Virginia Reel
TTITLE5=Sally Brown
TTITLE6=Choctaw Bill
TTITLE7=Molly Put the Kettle On
TTITLE8=Boating Up Sandy
TTITLE9=Josie Girl
TTITLE10=Boatsman
TTITLE11=Newt Payne's Great Big Taters
TTITLE12=Sequatchie Valley
TTITLE13=Baby Ben
TTITLE14=In the Pines
TTITLE15=Katy Hill
TTITLE16=New Five Cents
TTITLE17=Rocky Road to Dublin
TTITLE18=Throw the Old Cow Over the Fence
TTITLE19=The Old Cow Died in the Forks of the Branch
EXTD=
EXTT0=
EXTT1=
EXTT2=
EXTT3=
EXTT4=
EXTT5=
EXTT6=
EXTT7=
EXTT8=
EXTT9=
EXTT10=
EXTT11=
EXTT12=
EXTT13=
EXTT14=
EXTT15=
EXTT16=
EXTT17=
EXTT18=
EXTT19=
PLAYORDER=
